# xmcd CD database file
#
# Track frame offsets:
#	150
#	19146
#	33940
#	48672
#	68297
#	93130
#	113148
#	127027
#	139013
#	158344
#
# Disc length: 2413 seconds
#
# Revision: 0
# Processed by: cddbd v1.5.1PL0 Copyright (c) Steve Scherf et al.
# Submitted via: NeoAudio 9.9.9
#
DISCID=74096b0a
DTITLE=Tom Lanza - Father We Come
DYEAR=1900
DGENRE=Country
TTITLE0=Father We Come
TTITLE1=Resurrected From The Dead
TTITLE2=The Lord's Fast
TTITLE3=Strength Unto The Battle
TTITLE4=Eternal Life
TTITLE5=She Laid Hold On The Word
TTITLE6=You Are The One
TTITLE7=All Your Father Wants To Hear
TTITLE8=Tell Me The Story - Go Tell It On The Mountain
TTITLE9=Time With You
EXTD=
EXTT0=
EXTT1=
EXTT2=
EXTT3=
EXTT4=
EXTT5=
EXTT6=
EXTT7=
EXTT8=
EXTT9=
PLAYORDER=
